<?xml version="1.0" standalone="no"?>
<!DOCTYPE svg PUBLIC "-//W3C//DTD SVG 20010904//EN"
 "http://www.w3.org/TR/2001/REC-SVG-20010904/DTD/svg10.dtd">
<svg version="1.0" xmlns="http://www.w3.org/2000/svg"
 width="512.000000pt" height="512.000000pt" viewBox="0 0 512.000000 512.000000"
 preserveAspectRatio="xMidYMid meet">
<metadata>
Created by potrace 1.16, written by Peter Selinger 2001-2019
</metadata>
<g transform="translate(0.000000,512.000000) scale(0.100000,-0.100000)"
fill="#000000" stroke="none">
<path d="M2490 4664 c-537 -50 -952 -244 -1330 -623 -337 -338 -525 -710 -596
-1176 -23 -151 -23 -489 0 -640 22 -142 60 -296 103 -415 182 -506 612 -971
1111 -1202 281 -130 640 -198 968 -185 556 24 1000 213 1393 592 433 419 651
931 651 1530 0 599 -218 1111 -651 1530 -330 319 -695 502 -1134 570 -98 15
-426 27 -515 19z m456 -751 c69 -23 146 -102 164 -168 36 -128 -2 -249 -110
-348 -81 -75 -147 -100 -265 -101 -79 -1 -97 2 -148 27 -91 45 -127 114 -128
242 -1 86 19 142 73 213 100 129 269 185 414 135z m69 -1019 c67 -32 93 -116
76 -244 -6 -43 -65 -289 -132 -547 -123 -476 -143 -579 -118 -609 31 -38 163
6 297 99 l78 53 32 -43 c18 -24 35 -49 38 -56 6 -16 -150 -155 -267 -239 -256
-183 -562 -303 -686 -269 -112 31 -159 144 -134 324 6 43 60 286 121 540 60
253 110 481 110 505 l0 44 -59 -4 c-58 -4 -181 -56 -288 -122 l-41 -26 -32 51
c-17 28 -29 57 -27 63 7 17 197 164 310 239 282 189 605 297 722 241z"/>
</g>
</svg>
