<?xml version="1.0" standalone="no"?>
<!DOCTYPE svg PUBLIC "-//W3C//DTD SVG 20010904//EN"
 "http://www.w3.org/TR/2001/REC-SVG-20010904/DTD/svg10.dtd">
<svg version="1.0" xmlns="http://www.w3.org/2000/svg"
 width="229.000000pt" height="205.000000pt" viewBox="0 0 229.000000 205.000000"
 preserveAspectRatio="xMidYMid meet">

<g transform="translate(0.000000,205.000000) scale(0.100000,-0.100000)"
fill="#000000" stroke="none">
<path d="M2071 1992 c-1 -14 -10 -26 -23 -31 -34 -13 -43 -11 -40 5 2 8 -2 14
-8 14 -5 0 -10 -7 -10 -15 0 -20 -16 -19 -24 2 -6 14 -8 14 -21 -3 -9 -11 -14
-13 -13 -5 2 7 -2 15 -8 18 -6 2 -14 -11 -18 -28 -8 -40 -16 -33 -18 15 -2 50
-15 25 -22 -41 -4 -40 -2 -51 8 -47 7 3 13 -1 13 -8 0 -7 4 -22 9 -32 5 -14 4
-17 -4 -12 -7 4 -12 3 -12 -2 0 -5 9 -12 19 -15 15 -3 19 -13 19 -37 -1 -17 5
-36 13 -41 8 -5 10 -9 4 -9 -5 0 -3 -5 5 -10 13 -9 11 -13 -10 -29 -13 -11
-29 -17 -35 -14 -5 3 -1 -3 10 -14 11 -11 23 -19 28 -16 4 2 7 -1 7 -7 0 -6
10 -10 23 -8 12 2 21 9 20 15 -2 7 4 10 13 6 11 -4 12 -8 4 -13 -8 -5 -2 -10
15 -14 15 -4 25 -9 22 -12 -3 -3 6 -17 19 -31 13 -14 24 -32 24 -38 0 -7 7
-16 16 -19 13 -5 14 -9 5 -20 -9 -11 -7 -15 9 -19 13 -3 22 -17 26 -36 4 -17
10 -31 14 -31 11 0 33 -67 26 -79 -4 -5 -1 -11 4 -13 6 -2 12 -10 14 -18 1 -8
7 -24 12 -35 6 -11 11 -39 10 -63 -1 -23 2 -42 6 -42 8 0 5 -21 -5 -37 -5 -8
-3 -13 3 -13 6 0 9 -4 6 -9 -4 -5 -1 -11 6 -13 7 -3 2 -13 -12 -26 -20 -19
-21 -22 -6 -22 10 0 16 -5 13 -12 -2 -7 -10 -12 -16 -11 -16 4 -14 -23 4 -40
13 -13 13 -16 0 -21 -21 -8 -19 -36 2 -36 16 0 16 -1 -1 -13 -9 -7 -18 -22
-19 -35 -1 -14 -8 -22 -22 -23 -16 -1 -17 -2 -2 -6 9 -2 17 -11 17 -18 0 -8
-6 -12 -13 -9 -9 3 -13 -2 -12 -15 2 -29 10 -34 35 -21 12 6 24 9 27 7 10 -10
-9 -47 -23 -47 -8 0 -12 -4 -9 -10 3 -5 1 -10 -5 -10 -6 0 -8 -5 -4 -11 5 -8
-1 -10 -19 -5 -24 6 -25 4 -21 -21 4 -21 -1 -33 -24 -53 -16 -14 -30 -29 -31
-35 -5 -30 -26 -73 -33 -69 -11 7 -32 -17 -36 -41 -2 -11 -9 -23 -15 -27 -5
-3 -11 -18 -13 -32 -2 -19 2 -26 14 -26 15 0 15 2 2 10 -8 5 -10 10 -5 11 6 0
19 2 31 3 19 2 20 -3 21 -63 0 -57 6 -113 13 -131 1 -3 3 -39 4 -80 2 -41 3
-92 4 -112 l2 -38 105 0 105 0 -2 988 -3 987 -22 -2 c-15 -2 -23 3 -23 13 0 9
-6 14 -12 11 -7 -2 -12 -10 -10 -16 1 -6 -2 -11 -7 -11 -5 0 -11 8 -14 18 -4
16 -4 16 -10 0 -4 -10 -10 -26 -14 -35 -5 -14 -8 -12 -13 12 -8 29 -8 30 -15
6 l-8 -23 -13 23 c-11 21 -13 22 -19 7 -4 -10 -11 -18 -17 -18 -5 0 -7 3 -5 8
3 4 1 16 -4 27 -7 19 -8 19 -8 -3z m-86 -330 c-6 -7 -34 11 -29 19 3 5 11 3
19 -4 7 -6 12 -13 10 -15z"/>
<path d="M2030 1980 c0 -5 5 -10 11 -10 5 0 7 5 4 10 -3 6 -8 10 -11 10 -2 0
-4 -4 -4 -10z"/>
<path d="M1829 1928 c-5 -19 -8 -50 -4 -46 7 7 15 48 9 48 -2 0 -4 -1 -5 -2z"/>
<path d="M90 1868 c0 -21 -16 -24 -23 -5 -3 8 -10 6 -22 -8 -9 -11 -14 -14
-10 -7 3 7 0 12 -8 12 -8 0 -18 -7 -21 -16 -3 -9 -6 -427 -6 -930 l0 -914 205
0 205 0 0 44 c0 25 -4 47 -8 50 -4 2 -7 37 -6 78 1 40 -2 78 -7 84 -12 15 1
52 20 57 12 2 0 20 -46 65 -35 34 -63 69 -63 77 0 8 -5 14 -12 12 -6 -1 -17 8
-23 20 -7 13 -15 20 -18 16 -4 -3 -7 1 -7 10 0 10 -7 17 -16 17 -8 0 -13 4
-10 8 3 5 -4 16 -15 25 -11 10 -17 22 -14 27 3 6 2 10 -3 10 -5 0 -15 14 -22
30 -7 17 -17 30 -22 30 -5 0 -7 4 -3 9 3 5 -1 15 -8 23 -8 7 -12 19 -9 27 3 9
0 11 -8 6 -8 -5 -11 -4 -6 3 3 6 -2 30 -13 54 -29 63 -34 81 -32 101 1 9 -3
17 -9 17 -6 0 -9 4 -5 9 3 5 1 12 -5 16 -6 4 -8 11 -5 16 4 5 2 9 -3 9 -5 0
-8 11 -7 25 2 14 0 27 -4 29 -9 6 -7 248 3 264 4 7 2 20 -5 28 -8 9 -9 18 -3
22 11 8 16 25 22 75 2 20 8 37 14 37 5 0 7 4 3 9 -3 5 1 15 8 23 8 7 12 24 10
36 -1 13 1 21 6 17 5 -3 12 4 16 15 3 11 10 20 15 20 5 0 7 7 4 15 -4 8 -1 15
5 15 6 0 11 9 11 20 0 11 7 20 15 20 8 0 14 3 13 8 -1 4 4 18 11 31 7 13 11
41 9 62 -2 21 -1 39 3 39 4 0 9 7 12 14 4 10 1 13 -7 10 -9 -3 -13 3 -13 18
-1 43 -3 48 -24 48 -15 0 -19 4 -15 16 6 14 4 15 -10 4 -13 -12 -17 -11 -25 1
-7 11 -9 11 -9 -3z"/>
<path d="M1407 1713 c-19 -22 -22 -43 -7 -43 17 0 11 -18 -7 -23 -17 -4 -17
-5 -1 -6 11 -1 15 -6 12 -16 -4 -8 -1 -15 5 -15 6 0 10 -6 9 -12 -2 -7 2 -12
8 -11 6 1 12 -9 12 -22 0 -14 -5 -25 -10 -25 -5 0 -7 -9 -3 -20 5 -15 0 -21
-19 -26 -33 -8 -72 2 -79 20 -3 8 1 17 9 20 9 3 12 1 9 -4 -13 -21 11 -8 28
15 15 21 15 25 3 25 -8 0 -18 -4 -21 -10 -3 -5 -16 -10 -28 -10 -17 0 -19 2
-8 9 9 6 -3 8 -35 7 -32 -1 -48 -6 -47 -14 2 -7 -5 -12 -15 -13 -10 0 -12 -3
-4 -6 6 -2 10 -9 6 -14 -3 -5 -8 -22 -10 -36 -3 -15 -10 -31 -16 -34 -7 -4 -5
-9 3 -12 11 -5 10 -9 -3 -20 -24 -19 -23 -30 1 -17 24 12 31 13 31 2 0 -12
-50 -33 -61 -27 -5 4 -9 2 -9 -2 0 -8 -27 -9 -90 -5 -18 2 -21 5 -11 11 10 7
11 9 1 13 -18 6 -4 58 15 58 13 0 20 18 16 43 0 4 4 7 11 7 6 0 4 6 -7 13 -12
10 -14 16 -7 21 7 4 12 12 12 17 0 6 -4 8 -9 5 -5 -3 -12 1 -15 10 -9 23 -9
23 24 19 17 -2 30 0 30 4 0 5 -25 9 -55 9 -31 -1 -58 2 -62 6 -15 14 -21 4
-18 -31 2 -20 -3 -49 -11 -65 -8 -15 -15 -31 -17 -35 -1 -5 -5 -7 -9 -5 -5 1
-8 -7 -8 -19 0 -11 -6 -27 -14 -35 -12 -12 -22 -11 -68 3 -56 19 -98 57 -93
85 3 11 -1 15 -11 11 -8 -3 -14 -1 -14 5 0 5 -7 13 -16 16 -8 3 -12 2 -9 -4 3
-6 -1 -10 -9 -10 -8 0 -18 5 -21 10 -4 6 -10 8 -15 5 -5 -3 -11 -1 -14 4 -3 5
-15 7 -25 4 -20 -5 -46 28 -33 42 4 5 -1 5 -11 2 -10 -4 -27 -2 -37 3 -15 8
-18 7 -15 -2 5 -13 -55 -38 -90 -38 -8 0 -12 -6 -9 -13 3 -8 -9 -18 -31 -26
-24 -8 -39 -22 -46 -39 -5 -15 -13 -35 -19 -44 -6 -11 -6 -19 1 -23 6 -4 6
-12 1 -18 -5 -7 -7 -28 -5 -47 2 -19 5 -54 7 -78 2 -27 12 -52 26 -67 23 -24
96 -65 117 -65 6 0 24 -7 39 -15 16 -8 45 -15 65 -15 21 0 42 -7 50 -16 7 -8
22 -14 34 -11 30 5 77 -33 65 -53 -6 -9 -10 -11 -10 -3 0 7 -6 10 -14 7 -7 -3
-11 -14 -9 -28 5 -26 -36 -60 -60 -50 -8 3 -27 -8 -43 -25 -15 -16 -31 -28
-36 -25 -4 3 -8 -1 -8 -8 0 -7 -16 -22 -35 -32 -26 -14 -34 -24 -29 -38 3 -12
0 -18 -9 -18 -16 0 -13 -39 5 -77 8 -16 8 -26 -1 -36 -21 -26 -13 -177 10
-177 5 0 9 -7 9 -15 0 -8 7 -15 15 -15 17 0 20 -25 5 -35 -5 -3 -10 -13 -10
-21 0 -17 31 -19 48 -2 10 10 17 10 32 0 11 -6 31 -12 44 -12 14 0 28 -5 31
-10 4 -6 16 -8 27 -4 15 4 18 3 13 -6 -6 -9 -4 -11 6 -4 16 10 20 10 76 12 29
1 42 6 40 15 -1 8 8 11 27 9 32 -4 95 23 102 43 3 7 26 18 52 25 30 7 42 14
33 19 -10 6 -9 10 4 15 9 3 14 10 11 14 -6 10 43 37 58 33 5 -1 3 5 -4 14 -16
19 -9 27 27 31 14 2 29 8 33 15 10 15 17 3 25 -44 4 -20 12 -37 17 -37 6 0 8
-11 6 -25 -3 -13 -2 -23 1 -23 22 6 51 -16 51 -38 0 -17 5 -24 20 -24 11 0 20
-7 20 -16 0 -9 -5 -12 -12 -8 -7 4 -8 3 -4 -4 4 -7 13 -12 19 -12 7 0 17 -8
24 -19 6 -10 26 -21 43 -24 17 -4 29 -11 26 -15 -9 -14 41 -32 90 -32 51 0 88
16 123 54 14 14 30 26 37 26 7 0 23 19 36 42 13 24 36 49 51 56 20 10 27 20
27 42 0 16 5 32 10 35 16 10 11 54 -8 73 -35 32 -62 52 -72 52 -9 0 -14 14
-11 33 0 4 -8 7 -19 7 -11 0 -20 7 -20 15 0 8 -9 15 -19 15 -18 0 -71 40 -71
53 0 3 10 3 23 0 21 -5 21 -5 -3 13 -14 10 -33 17 -43 16 -26 -5 -49 28 -34
48 10 13 10 13 -5 2 -23 -18 -43 -6 -23 14 8 9 19 12 25 9 5 -3 10 0 10 8 0
16 72 43 88 33 6 -3 8 2 5 13 -4 15 1 19 24 19 15 1 42 3 58 5 17 2 36 5 44 5
7 1 11 8 8 17 -4 8 -2 17 3 20 16 10 -1 35 -23 35 -43 0 -67 4 -67 11 0 14
-41 17 -47 3 -3 -8 -19 -14 -40 -14 -19 0 -32 -4 -29 -9 8 -12 -50 -35 -70
-27 -14 5 -15 4 -5 -8 16 -19 4 -23 -44 -15 -22 3 -31 7 -19 8 11 0 29 13 41
29 11 15 30 28 43 29 28 2 38 12 22 22 -10 6 -10 10 2 20 8 7 12 19 9 26 -3
10 1 13 17 10 32 -6 124 17 108 27 -9 5 -6 8 10 8 12 0 22 5 22 10 0 6 21 10
46 10 25 0 43 4 40 9 -4 5 -1 11 6 13 7 3 9 14 4 31 -5 20 -13 27 -31 27 -14
0 -25 6 -25 13 0 9 -3 8 -9 -2 -5 -8 -16 -11 -29 -7 -11 4 -41 7 -66 8 -53 1
-59 10 -17 28 25 10 40 8 101 -11 61 -19 77 -21 104 -11 18 7 44 12 58 12 20
0 26 5 26 24 0 14 -7 27 -15 30 -8 3 -12 10 -8 15 3 6 -23 9 -68 8 -55 -2 -79
2 -100 16 -31 20 -41 22 -31 5 4 -7 -2 -5 -13 5 -22 19 -59 23 -65 6 -3 -8
-12 -9 -28 -4 l-25 9 25 6 c25 7 24 7 -8 16 -30 8 -42 31 -15 28 8 -1 5 10 -8
27 l-20 29 26 0 27 0 -23 21 c-23 19 -23 20 -2 10 27 -13 33 -14 33 -1 0 5
-16 12 -35 16 -33 6 -34 7 -18 30 15 23 14 24 -11 24 -18 0 -24 4 -20 15 4 8
11 12 18 8 6 -4 5 1 -3 10 -12 15 -11 17 3 17 16 0 22 15 9 23 -5 3 -28 8 -53
12 -38 5 -48 3 -63 -12z m-847 -177 c0 -3 -4 -8 -10 -11 -5 -3 -10 -1 -10 4 0
6 5 11 10 11 6 0 10 -2 10 -4z m-144 -51 c-8 -8 -18 -15 -22 -15 -3 0 -1 7 6
15 7 8 17 15 22 15 5 0 3 -7 -6 -15z m235 -10 c11 6 11 5 2 -5 -12 -14 -33 -6
-33 13 0 8 3 7 9 -2 5 -8 14 -10 22 -6z m737 -7 c-18 -11 -68 -10 -68 2 0 5
18 9 40 8 26 -1 36 -4 28 -10z m-878 -65 c6 -6 -30 -33 -43 -33 -5 0 -4 7 3
15 10 13 9 15 -9 15 -12 0 -19 4 -16 10 6 9 53 4 65 -7z m270 -8 c-7 -8 -17
-15 -22 -15 -6 0 -5 7 2 15 7 8 17 15 22 15 6 0 5 -7 -2 -15z m-91 -9 c9 -11
6 -12 -15 -8 -19 3 -22 7 -12 13 16 11 14 11 27 -5z m-165 -11 c-6 -16 -24
-21 -24 -7 0 11 11 22 21 22 5 0 6 -7 3 -15z m310 -6 c27 4 39 0 30 -9 -14
-14 -68 6 -58 21 5 8 9 8 14 -1 4 -6 10 -11 14 -11z m-404 1 c0 -5 -4 -10 -9
-10 -6 0 -13 5 -16 10 -3 6 1 10 9 10 9 0 16 -4 16 -10z m145 -10 c-3 -5 -11
-10 -16 -10 -6 0 -7 5 -4 10 3 6 11 10 16 10 6 0 7 -4 4 -10z m665 0 c0 -5 -5
-10 -11 -10 -5 0 -7 5 -4 10 3 6 8 10 11 10 2 0 4 -4 4 -10z m72 -32 c-9 -9
-12 -9 -12 0 0 7 -3 11 -7 11 -24 -4 -43 2 -38 12 4 6 13 8 21 5 8 -3 14 0 14
6 0 8 7 5 17 -5 13 -13 15 -19 5 -29z m-558 17 c6 -18 -30 -21 -54 -4 -12 8
-10 9 8 4 13 -4 22 -2 22 4 0 16 17 13 24 -4z m367 -10 c8 6 8 2 0 -13 -13
-25 -31 -38 -31 -22 0 6 -5 8 -11 4 -8 -5 -8 -1 0 13 6 11 7 24 3 29 -4 5 1 2
10 -5 9 -7 22 -10 29 -6z m-227 -20 c3 -8 4 -15 2 -15 -3 0 -11 -3 -19 -6 -14
-5 -16 7 -8 34 3 8 20 -1 25 -13z m451 6 c-3 -5 -1 -12 4 -15 5 -4 12 -2 16 4
9 15 25 12 19 -4 -3 -8 -14 -16 -24 -19 -10 -3 -29 -25 -40 -51 -20 -41 -53
-67 -67 -52 -9 8 18 37 28 30 5 -3 9 2 9 10 0 8 6 21 13 28 6 8 18 24 25 36
10 18 10 22 0 22 -9 0 -8 3 2 10 19 12 23 12 15 1z m-894 -10 c-7 -5 -10 -14
-7 -20 4 -6 2 -11 -3 -11 -6 0 -11 -7 -11 -15 0 -8 -7 -15 -16 -15 -11 0 -14
6 -9 23 7 23 32 47 49 47 6 0 5 -4 -3 -9z m45 -6 c-6 -18 -1 -19 25 -5 11 6
19 7 19 1 0 -5 11 -12 25 -15 18 -5 25 -13 25 -31 0 -19 6 -25 23 -26 18 -1
19 -2 3 -6 -10 -3 -23 0 -29 6 -6 6 -19 11 -29 11 -10 0 -18 7 -18 15 0 8 -5
15 -11 15 -5 0 -7 6 -3 13 6 10 4 10 -7 0 -12 -12 -59 -18 -59 -8 0 6 33 45
38 45 2 0 2 -7 -2 -15z m169 5 c3 -5 1 -10 -4 -10 -6 0 -11 5 -11 10 0 6 2 10
4 10 3 0 8 -4 11 -10z m145 0 c0 -5 -7 -10 -16 -10 -8 0 -12 5 -9 10 3 6 10
10 16 10 5 0 9 -4 9 -10z m-43 -6 c-3 -3 -12 -4 -19 -1 -8 3 -5 6 6 6 11 1 17
-2 13 -5z m278 -14 c3 -5 1 -10 -4 -10 -6 0 -11 5 -11 10 0 6 2 10 4 10 3 0 8
-4 11 -10z m405 -5 c-10 -12 -9 -16 4 -21 9 -3 13 -10 10 -15 -9 -14 -24 -10
-24 6 0 9 -7 18 -16 22 -13 5 -13 7 -2 14 7 5 19 9 27 9 11 0 11 -3 1 -15z
m160 -9 c0 -11 -19 -15 -25 -6 -3 5 1 10 9 10 9 0 16 -2 16 -4z m-807 -13 c-7
-2 -19 -2 -25 0 -7 3 -2 5 12 5 14 0 19 -2 13 -5z m-283 -13 c0 -5 -4 -10 -9
-10 -5 0 -17 -3 -27 -7 -16 -6 -17 -5 -4 10 17 18 40 22 40 7z m190 0 c0 -5
-10 -10 -22 -9 -22 0 -22 1 -3 9 11 5 21 9 23 9 1 1 2 -3 2 -9z m185 0 c3 -5
-1 -10 -9 -10 -8 0 -18 5 -21 10 -3 6 1 10 9 10 8 0 18 -4 21 -10z m-95 -24
c0 -11 -19 -15 -25 -6 -3 5 1 10 9 10 9 0 16 -2 16 -4z m678 -17 c4 -19 -24
-33 -34 -17 -4 7 -3 8 4 4 16 -10 15 7 0 23 -11 10 -9 12 7 9 11 -2 21 -10 23
-19z m-878 -10 c0 -5 -9 -9 -20 -9 -11 0 -20 4 -20 8 0 4 9 8 20 9 11 1 20 -2
20 -8z m169 -11 c13 -4 13 -5 0 -10 -19 -7 -62 9 -54 22 4 6 13 7 23 1 9 -4
24 -10 31 -13z m146 12 c3 -5 -1 -10 -10 -10 -9 0 -13 5 -10 10 3 6 8 10 10
10 2 0 7 -4 10 -10z m320 -50 c25 -22 44 -40 40 -40 -12 0 -50 26 -63 43 -7 9
-20 17 -28 17 -8 0 -12 5 -9 10 9 14 9 14 60 -30z m-566 2 c-5 -2 -17 -1 -27
3 -13 5 -14 8 -3 15 8 5 19 3 26 -3 7 -7 9 -14 4 -15z m821 24 c0 -3 -4 -8
-10 -11 -5 -3 -10 -1 -10 4 0 6 5 11 10 11 6 0 10 -2 10 -4z m-390 -10 c0 -3
-4 -8 -10 -11 -5 -3 -10 -1 -10 4 0 6 5 11 10 11 6 0 10 -2 10 -4z m260 -24
c0 -15 -2 -15 -10 -2 -13 20 -13 33 0 25 6 -3 10 -14 10 -23z m-560 -2 c0 -5
-7 -10 -15 -10 -8 0 -15 5 -15 10 0 6 7 10 15 10 8 0 15 -4 15 -10z m230 1 c0
-6 -4 -13 -10 -16 -5 -3 -10 1 -10 9 0 9 5 16 10 16 6 0 10 -4 10 -9z m-285
-11 c-3 -5 -11 -10 -16 -10 -6 0 -7 5 -4 10 3 6 11 10 16 10 6 0 7 -4 4 -10z
m351 -86 c-3 -7 4 -16 15 -19 15 -5 17 -10 9 -20 -8 -9 -3 -15 20 -25 33 -14
50 -37 43 -57 -7 -18 -33 -16 -33 2 0 14 -17 20 -47 16 -8 -1 -10 5 -7 14 4 9
0 15 -10 15 -16 0 -39 32 -31 44 3 3 2 4 -1 2 -9 -7 -44 27 -38 36 9 14 85 6
80 -8z m239 6 c3 -5 -1 -10 -9 -10 -9 0 -16 5 -16 10 0 6 4 10 9 10 6 0 13 -4
16 -10z m75 -74 c0 -3 -4 -8 -10 -11 -5 -3 -10 -1 -10 4 0 6 5 11 10 11 6 0
10 -2 10 -4z m-647 -70 c19 -22 18 -41 -4 -41 -16 -1 -42 32 -46 57 -3 22 24
13 50 -16z m-113 4 c0 -5 -4 -10 -10 -10 -5 0 -10 5 -10 10 0 6 5 10 10 10 6
0 10 -4 10 -10z m775 -20 c3 -6 -1 -7 -9 -4 -18 7 -21 14 -7 14 6 0 13 -4 16
-10z m-601 -73 c14 -11 12 -14 -11 -25 -20 -9 -24 -9 -15 0 15 15 16 32 2 23
-5 -3 -10 1 -10 9 0 9 -8 16 -17 16 -15 0 -16 2 -3 10 11 7 18 5 27 -6 6 -9
18 -21 27 -27z m466 23 c0 -11 -6 -20 -14 -20 -9 0 -12 7 -9 20 3 11 9 20 14
20 5 0 9 -9 9 -20z m64 4 c3 -8 2 -12 -4 -9 -6 3 -10 10 -10 16 0 14 7 11 14
-7z m121 -14 c3 -5 -1 -10 -10 -10 -9 0 -13 5 -10 10 3 6 8 10 10 10 2 0 7 -4
10 -10z m-117 -30 c-7 -11 -16 -20 -20 -20 -5 0 -3 9 4 20 7 11 16 20 20 20 5
0 3 -9 -4 -20z m-64 -23 c-3 -9 -10 -17 -15 -17 -11 0 -12 34 -2 44 11 11 24
-9 17 -27z m-404 -37 c0 -9 -47 -20 -55 -12 -2 3 3 11 13 19 9 8 11 12 5 8 -7
-3 -13 -4 -13 -1 0 2 -3 12 -7 22 -6 15 -2 15 25 -5 18 -12 32 -26 32 -31z
m503 30 c20 -24 28 -73 15 -92 -8 -10 -9 -10 -5 2 2 8 -2 20 -9 27 -7 7 -10
22 -7 33 3 11 1 20 -5 20 -5 0 -12 7 -16 15 -8 21 7 19 27 -5z m-473 -39 c0
-5 8 -12 18 -15 32 -11 65 -43 57 -55 -5 -9 -11 -6 -22 9 -10 14 -21 19 -34
15 -11 -4 -19 -2 -19 4 0 6 -7 11 -15 11 -15 0 -21 21 -8 33 9 10 23 8 23 -2z
m375 -13 c6 -4 2 -8 -7 -8 -10 0 -18 7 -18 17 0 9 3 12 8 7 4 -5 12 -12 17
-16z m305 12 c0 -5 -4 -10 -9 -10 -6 0 -13 5 -16 10 -3 6 1 10 9 10 9 0 16 -4
16 -10z m-246 -75 c3 -9 0 -15 -9 -15 -8 0 -15 7 -15 15 0 8 4 15 9 15 5 0 11
-7 15 -15z m-324 -6 c0 -5 4 -7 10 -4 5 3 17 2 26 -3 15 -8 15 -10 0 -15 -17
-7 -69 16 -59 26 10 11 23 8 23 -4z m520 -14 c13 -8 12 -16 -4 -38 -11 -13
-19 -15 -37 -8 -13 5 -21 10 -17 10 4 1 3 12 -2 25 -8 23 -7 24 21 21 16 -2
34 -7 39 -10z m-180 -14 c0 -6 -4 -13 -10 -16 -5 -3 -10 1 -10 9 0 9 5 16 10
16 6 0 10 -4 10 -9z m298 -30 c-16 -5 -29 22 -15 31 7 4 15 0 18 -10 4 -9 2
-19 -3 -21z m42 -1 c0 -5 -5 -10 -11 -10 -5 0 -7 5 -4 10 3 6 8 10 11 10 2 0
4 -4 4 -10z m-292 -12 c17 -17 15 -29 -3 -22 -8 4 -13 10 -10 14 3 5 -3 11
-12 13 -14 4 -14 5 -2 6 8 0 20 -4 27 -11z m187 -45 c-7 -17 -8 -17 -15 2 -9
24 -2 41 12 27 6 -6 7 -19 3 -29z m-175 -1 c0 -13 -12 -22 -22 -16 -10 6 -1
24 13 24 5 0 9 -4 9 -8z m251 -19 c13 -16 12 -17 -3 -5 -14 11 -17 10 -21 -5
-4 -14 -5 -13 -6 5 -1 26 11 29 30 5z m-181 -43 c0 -5 -2 -10 -4 -10 -3 0 -8
5 -11 10 -3 6 -1 10 4 10 6 0 11 -4 11 -10z m75 -77 c-2 -6 1 -14 8 -17 9 -3
9 -5 0 -5 -6 -1 -18 6 -27 14 -10 11 -24 13 -42 9 -19 -5 -25 -4 -20 5 4 6 2
11 -4 11 -24 0 -2 25 26 31 22 4 33 0 46 -15 10 -12 16 -26 13 -33z"/>
<path d="M1910 1701 c0 -7 -4 -9 -10 -6 -5 3 -10 1 -10 -4 0 -6 4 -11 9 -11
13 0 25 20 17 27 -3 4 -6 1 -6 -6z"/>
<path d="M984 1682 c3 -5 0 -13 -6 -15 -8 -3 -6 -6 5 -6 19 -1 23 14 5 25 -6
4 -8 3 -4 -4z"/>
<path d="M1016 1658 c3 -4 11 -5 19 -1 21 7 19 12 -4 10 -11 0 -18 -5 -15 -9z"/>
<path d="M1575 1650 c3 -5 8 -10 11 -10 2 0 4 5 4 10 0 6 -5 10 -11 10 -5 0
-7 -4 -4 -10z"/>
<path d="M730 1640 c0 -5 5 -10 11 -10 5 0 7 5 4 10 -3 6 -8 10 -11 10 -2 0
-4 -4 -4 -10z"/>
<path d="M1966 1587 c-2 -9 -1 -15 4 -12 4 3 11 -2 14 -11 8 -22 8 -22 -11
-28 -10 -3 -3 -4 15 -2 27 2 31 0 26 -16 -4 -13 0 -18 14 -18 11 0 22 -9 25
-20 5 -20 27 -28 27 -10 0 6 -6 10 -12 10 -10 0 -10 2 -1 8 15 9 5 26 -22 36
-16 6 -17 9 -5 16 12 8 11 10 -5 11 -20 0 -20 1 0 8 17 7 16 8 -9 15 -20 5
-25 10 -18 19 8 9 4 12 -13 12 -14 0 -26 -7 -29 -18z"/>
<path d="M1180 1596 c0 -2 7 -7 16 -10 8 -3 12 -2 9 4 -6 10 -25 14 -25 6z"/>
<path d="M650 1571 c0 -5 11 -11 25 -13 20 -4 23 -3 14 8 -13 16 -39 19 -39 5z"/>
<path d="M134 1538 c-4 -5 -3 -12 0 -15 3 -4 6 -1 6 6 0 7 4 10 9 6 5 -3 12
-2 15 3 3 5 -2 9 -10 9 -8 0 -17 -4 -20 -9z"/>
<path d="M1380 1540 c-13 -8 -12 -10 3 -10 9 0 17 5 17 10 0 12 -1 12 -20 0z"/>
<path d="M1727 1539 c7 -7 15 -10 18 -7 3 3 -2 9 -12 12 -14 6 -15 5 -6 -5z"/>
<path d="M1857 1530 c16 -15 53 -22 53 -10 0 6 6 8 13 4 6 -4 8 -3 4 1 -4 5
-23 10 -43 11 -19 0 -31 -2 -27 -6z"/>
<path d="M1618 1498 c5 -5 16 -8 23 -6 8 3 3 7 -10 11 -17 4 -21 3 -13 -5z"/>
<path d="M2018 1473 c7 -3 16 -2 19 1 4 3 -2 6 -13 5 -11 0 -14 -3 -6 -6z"/>
<path d="M1984 1438 c1 -30 66 -47 66 -18 0 3 -14 5 -31 4 -22 -2 -29 2 -25
12 3 7 1 16 -3 18 -5 3 -8 -4 -7 -16z"/>
<path d="M2014 1448 c-3 -4 6 -8 20 -8 14 0 26 4 26 9 0 11 -39 10 -46 -1z"/>
<path d="M1775 1440 c-3 -5 1 -10 10 -10 9 0 13 5 10 10 -3 6 -8 10 -10 10 -2
0 -7 -4 -10 -10z"/>
<path d="M1864 1428 c-9 -15 5 -23 18 -10 8 8 14 8 22 -2 6 -8 22 -17 36 -20
l25 -6 -25 12 c-14 7 -28 17 -32 22 -9 13 -37 16 -44 4z"/>
<path d="M2090 1412 c0 -4 9 -8 19 -8 11 0 17 4 15 8 -3 4 -12 8 -20 8 -8 0
-14 -4 -14 -8z"/>
<path d="M2095 1380 c27 -12 43 -12 25 0 -8 5 -22 9 -30 9 -10 0 -8 -3 5 -9z"/>
<path d="M1990 1363 c8 -3 28 -17 43 -30 16 -13 34 -20 40 -16 7 4 0 10 -15
15 -19 7 -25 14 -21 26 4 13 3 14 -5 3 -7 -9 -12 -10 -16 -2 -4 6 -15 11 -24
10 -14 0 -14 -2 -2 -6z"/>
<path d="M1910 1351 c0 -5 5 -13 10 -16 6 -3 10 -2 10 4 0 5 -4 13 -10 16 -5
3 -10 2 -10 -4z"/>
<path d="M60 1320 c0 -5 5 -10 11 -10 5 0 7 5 4 10 -3 6 -8 10 -11 10 -2 0 -4
-4 -4 -10z"/>
<path d="M2031 1294 c6 -7 17 -10 25 -7 20 7 18 10 -11 15 -20 4 -23 2 -14 -8z"/>
<path d="M1875 1290 c3 -5 14 -10 23 -10 15 0 15 2 2 10 -20 13 -33 13 -25 0z"/>
<path d="M2030 1266 c14 -8 27 -12 29 -10 6 6 -1 11 -29 18 l-25 7 25 -15z"/>
<path d="M2108 1263 c7 -3 16 -2 19 1 4 3 -2 6 -13 5 -11 0 -14 -3 -6 -6z"/>
<path d="M2135 1240 c-16 -7 -17 -9 -3 -9 9 -1 20 4 23 9 7 11 7 11 -20 0z"/>
<path d="M2038 1233 c6 -2 18 -2 25 0 6 3 1 5 -13 5 -14 0 -19 -2 -12 -5z"/>
<path d="M2088 1233 c7 -3 16 -2 19 1 4 3 -2 6 -13 5 -11 0 -14 -3 -6 -6z"/>
<path d="M2100 1198 c0 -4 14 -8 30 -8 17 0 30 2 30 4 0 2 -13 6 -30 8 -16 3
-30 1 -30 -4z"/>
<path d="M2157 1145 c-4 -8 -2 -17 3 -20 6 -4 10 3 10 14 0 25 -6 27 -13 6z"/>
<path d="M2008 1143 c7 -3 16 -2 19 1 4 3 -2 6 -13 5 -11 0 -14 -3 -6 -6z"/>
<path d="M2152 1096 c13 -14 28 -12 28 5 0 5 -9 9 -20 9 -17 0 -19 -2 -8 -14z"/>
<path d="M2067 1079 c7 -7 15 -10 18 -7 3 3 -2 9 -12 12 -14 6 -15 5 -6 -5z"/>
<path d="M2130 1070 c8 -5 15 -15 16 -22 3 -34 5 -39 13 -34 5 3 11 17 13 30
4 19 0 26 -16 30 -31 9 -43 7 -26 -4z"/>
<path d="M2110 983 c0 -5 11 -8 24 -8 13 0 22 3 19 8 -2 4 -13 7 -24 7 -10 0
-19 -3 -19 -7z"/>
<path d="M2123 923 c9 -2 15 -8 13 -12 -3 -4 -1 -13 3 -20 6 -9 9 -4 9 13 0
20 -5 26 -22 25 -17 -1 -18 -2 -3 -6z"/>
<path d="M2060 909 c0 -11 25 -22 39 -17 6 1 -1 8 -14 15 -14 6 -25 7 -25 2z"/>
<path d="M2025 900 c4 -6 11 -8 16 -5 14 9 11 15 -7 15 -8 0 -12 -5 -9 -10z"/>
<path d="M2078 863 c12 -2 30 -2 40 0 9 3 -1 5 -23 4 -22 0 -30 -2 -17 -4z"/>
<path d="M2060 840 c0 -5 9 -10 20 -10 11 0 20 5 20 10 0 6 -9 10 -20 10 -11
0 -20 -4 -20 -10z"/>
<path d="M2110 841 c0 -5 5 -13 10 -16 6 -3 10 -2 10 4 0 5 -4 13 -10 16 -5 3
-10 2 -10 -4z"/>
<path d="M2069 806 c6 -7 8 -15 5 -18 -2 -3 8 -8 23 -11 24 -4 25 -3 10 7 -9
7 -14 15 -11 18 2 3 -5 8 -16 11 -16 4 -19 2 -11 -7z"/>
<path d="M2055 750 c3 -5 8 -10 11 -10 2 0 4 5 4 10 0 6 -5 10 -11 10 -5 0 -7
-4 -4 -10z"/>
<path d="M2088 723 c7 -3 16 -2 19 1 4 3 -2 6 -13 5 -11 0 -14 -3 -6 -6z"/>
<path d="M1720 711 c0 -11 31 -24 39 -16 3 3 -1 10 -9 15 -19 12 -30 12 -30 1z"/>
<path d="M2018 703 c7 -3 16 -2 19 1 4 3 -2 6 -13 5 -11 0 -14 -3 -6 -6z"/>
<path d="M2077 693 c-4 -3 -7 -11 -7 -17 0 -6 5 -5 12 2 6 6 9 14 7 17 -3 3
-9 2 -12 -2z"/>
<path d="M2016 655 c-3 -8 -3 -15 0 -15 3 0 12 7 20 15 13 13 13 15 1 15 -8 0
-17 -7 -21 -15z"/>
</g>
</svg>
